0
SECTION
2
HEADER
9
$INSUNITS
70
4
9
$ACADVER
1
AC1014
9
$HANDSEED
5
FFFF
0
ENDSEC
0
SECTION
2
TABLES
0
TABLE
2
VPORT
5
8
100
AcDbSymbolTable
0
ENDTAB
0
TABLE
2
LTYPE
5
5
100
AcDbSymbolTable
0
LTYPE
5
14
100
AcDbSymbolTableRecord
100
AcDbLinetypeTableRecord
2
BYBLOCK
70
0
0
LTYPE
5
15
100
AcDbSymbolTableRecord
100
AcDbLinetypeTableRecord
2
BYLAYER
70
0
0
ENDTAB
0
TABLE
2
LAYER
5
2
100
AcDbSymbolTable
70
2
0
LAYER
5
50
100
AcDbSymbolTableRecord
100
AcDbLayerTableRecord
2
0
70
0
6
CONTINUOUS
0
ENDTAB
0
TABLE
2
STYLE
5
3
100
AcDbSymbolTable
70
1
0
STYLE
5
11
100
AcDbSymbolTableRecord
100
AcDbTextStyleTableRecord
2
STANDARD
70
0
0
ENDTAB
0
TABLE
2
VIEW
5
6
100
AcDbSymbolTable
70
0
0
ENDTAB
0
TABLE
2
UCS
5
7
100
AcDbSymbolTable
70
0
0
ENDTAB
0
TABLE
2
APPID
5
9
100
AcDbSymbolTable
70
2
0
APPID
5
12
100
AcDbSymbolTableRecord
100
AcDbRegAppTableRecord
2
ACAD
70
0
0
ENDTAB
0
TABLE
2
DIMSTYLE
5
A
100
AcDbSymbolTable
70
1
0
ENDTAB
0
TABLE
2
BLOCK_RECORD
5
1
100
AcDbSymbolTable
70
1
0
BLOCK_RECORD
5
1F
100
AcDbSymbolTableRecord
100
AcDbBlockTableRecord
2
*MODEL_SPACE
0
BLOCK_RECORD
5
1B
100
AcDbSymbolTableRecord
100
AcDbBlockTableRecord
2
*PAPER_SPACE
0
ENDTAB
0
ENDSEC
0
SECTION
2
BLOCKS
0
BLOCK
5
20
100
AcDbEntity
100
AcDbBlockBegin
2
*MODEL_SPACE
0
ENDBLK
5
21
100
AcDbEntity
100
AcDbBlockEnd
0
BLOCK
5
1C
100
AcDbEntity
100
AcDbBlockBegin
2
*PAPER_SPACE
0
ENDBLK
5
1D
100
AcDbEntity
100
AcDbBlockEnd
0
ENDSEC
0
SECTION
2
ENTITIES
0
LWPOLYLINE
5
100
100
AcDbEntity
8
0
100
AcDbPolyline
90
8
70
1
43
0.0
10
230.93200000000002
20
3.3682699999999999
10
230.93200000000002
20
15.867800000000001
42
0.41421356237309243
10
230.18200000000004
20
16.617799999999988
10
217.68200000000004
20
16.617799999999999
42
0.41421356237309243
10
216.93200000000004
20
15.867799999999999
10
216.93200000000004
20
3.3682699999999999
42
0.41421356237309176
10
217.68200000000004
20
2.6182700000000154
10
230.18200000000004
20
2.6182700000000168
42
0.41421356237309115
0
LWPOLYLINE
5
101
100
AcDbEntity
8
0
100
AcDbPolyline
90
8
70
1
43
0.0
10
55.007200000000005
20
15.867799999999999
10
55.007200000000005
20
3.3682700000000025
42
0.41421356237310542
10
55.757200000000033
20
2.6182700000000034
10
68.256500000000003
20
2.6182700000000025
42
0.41421356237309531
10
69.006500000000017
20
3.3682700000000021
10
69.006500000000003
20
15.867799999999999
42
0.41421356237308815
10
68.256500000000017
20
16.617799999999999
10
55.757200000000005
20
16.617799999999999
42
0.41421356237309503
0
LWPOLYLINE
5
102
100
AcDbEntity
8
0
100
AcDbPolyline
90
8
70
1
43
0.0
10
31.194700000000001
20
15.867799999999999
10
31.194700000000001
20
3.3682699999999999
42
0.41421356237309681
10
31.944700000000008
20
2.618269999999999
10
44.444000000000003
20
2.6182699999999999
42
0.41421356237309531
10
45.19400000000001
20
3.3682699999999999
10
45.19400000000001
20
15.867800000000001
42
0.4142135623730942
10
44.444000000000003
20
16.617799999999999
10
31.944700000000008
20
16.617800000000003
42
0.41421356237309681
0
LWPOLYLINE
5
103
100
AcDbEntity
8
0
100
AcDbPolyline
90
8
70
1
43
0.0
10
136.72
20
16.617799999999999
10
149.21899999999999
20
16.617799999999995
42
-0.41421356237309592
10
149.96899999999999
20
15.867800000000001
10
149.96899999999999
20
3.3682699999999999
42
-0.41421356237309531
10
149.21899999999999
20
2.6182699999999999
10
136.72
20
2.6182700000000079
42
-0.41421356237309548
10
135.97000000000003
20
3.3682700000000021
10
135.97000000000003
20
15.867800000000001
42
-0.41421356237309592
0
LWPOLYLINE
5
104
100
AcDbEntity
8
0
100
AcDbPolyline
90
8
70
1
43
0.0
10
254.74400000000003
20
3.3682699999999999
10
254.74400000000003
20
15.867800000000001
42
0.41421356237309243
10
253.99400000000003
20
16.617799999999988
10
241.495
20
16.617799999999999
42
0.41421356237309243
10
240.745
20
15.867800000000001
10
240.745
20
3.3682699999999999
42
0.41421356237309176
10
241.495
20
2.6182700000000154
10
253.99400000000003
20
2.6182700000000168
42
0.41421356237309115
0
LWPOLYLINE
5
105
100
AcDbEntity
8
0
100
AcDbPolyline
90
8
70
1
43
0.0
10
211.13200000000003
20
35.667600000000007
10
198.63200000000003
20
35.667600000000007
42
0.41421356237309331
10
197.88200000000003
20
34.9176
10
197.88200000000003
20
22.418300000000002
42
0.41421356237309331
10
198.63200000000003
20
21.668300000000002
10
211.13200000000003
20
21.668300000000002
42
0.41421356237309331
10
211.88200000000001
20
22.418300000000002
10
211.88200000000001
20
34.9176
42
0.41421356237309331
0
LWPOLYLINE
5
106
100
AcDbEntity
8
0
100
AcDbPolyline
90
8
70
1
43
0.0
10
178.83199999999999
20
34.9176
10
178.83199999999999
20
22.418300000000002
42
0.41421356237310025
10
179.58199999999999
20
21.668299999999995
10
192.08200000000002
20
21.668300000000013
42
0.41421356237309331
10
192.83199999999999
20
22.418300000000002
10
192.83199999999999
20
34.9176
42
0.41421356237309331
10
192.08200000000002
20
35.667599999999993
10
179.58199999999999
20
35.667600000000007
42
0.41421356237310025
0
LWPOLYLINE
5
107
100
AcDbEntity
8
0
100
AcDbPolyline
90
8
70
1
43
0.0
10
115.88200000000002
20
35.667600000000007
10
103.38200000000001
20
35.667600000000007
42
0.41421356237309681
10
102.63200000000001
20
34.9176
10
102.63200000000001
20
22.418300000000002
42
0.41421356237309681
10
103.38200000000001
20
21.668300000000006
10
115.88200000000002
20
21.668300000000002
42
0.41421356237309681
10
116.63200000000002
20
22.418300000000002
10
116.63200000000002
20
34.9176
42
0.41421356237309681
0
LWPOLYLINE
5
108
100
AcDbEntity
8
0
100
AcDbPolyline
90
8
70
1
43
0.0
10
96.831000000000017
20
35.667300000000004
10
84.332499999999996
20
35.667300000000004
42
0.41421356237308637
10
83.582499999999996
20
34.917299999999997
10
83.582499999999996
20
22.418300000000002
42
0.41421356237309681
10
84.332499999999996
20
21.668300000000006
10
96.831000000000017
20
21.668300000000006
42
0.41421356237309681
10
97.581000000000003
20
22.418300000000002
10
97.581000000000003
20
34.917299999999997
42
0.41421356237308637
0
LWPOLYLINE
5
109
100
AcDbEntity
8
0
100
AcDbPolyline
90
8
70
1
43
0.0
10
159.78200000000001
20
34.9176
10
159.78200000000001
20
22.418300000000002
42
0.41421356237309681
10
160.53200000000001
20
21.668300000000006
10
173.03200000000004
20
21.668300000000002
42
0.41421356237310025
10
173.78200000000004
20
22.418300000000002
10
173.78200000000004
20
34.9176
42
0.41421356237310025
10
173.03200000000004
20
35.667600000000007
10
160.53200000000001
20
35.6676
42
0.41421356237309681
0
LWPOLYLINE
5
110
100
AcDbEntity
8
0
100
AcDbPolyline
90
8
70
1
43
0.0
10
78.531499999999994
20
22.418300000000002
10
78.531499999999994
20
34.9176
42
0.41421356237309681
10
77.78149999999998
20
35.6676
10
65.282200000000017
20
35.667600000000007
42
0.41421356237308815
10
64.532200000000003
20
34.9176
10
64.532200000000003
20
22.418300000000002
42
0.41421356237308815
10
65.282200000000017
20
21.668300000000002
10
77.78149999999998
20
21.668300000000006
42
0.41421356237309681
0
LWPOLYLINE
5
111
100
AcDbEntity
8
0
100
AcDbPolyline
90
8
70
1
43
0.0
10
135.68200000000002
20
22.418300000000002
10
135.68200000000002
20
34.9176
42
0.41421356237308815
10
134.93200000000004
20
35.6676
10
122.432
20
35.667600000000007
42
0.41421356237309503
10
121.68200000000002
20
34.9176
10
121.68200000000004
20
22.418300000000006
42
0.41421356237309681
10
122.432
20
21.668300000000002
10
134.93200000000004
20
21.668300000000002
42
0.41421356237308815
0
LWPOLYLINE
5
112
100
AcDbEntity
8
0
100
AcDbPolyline
90
8
70
1
43
0.0
10
153.982
20
35.667600000000007
10
141.482
20
35.667600000000007
42
0.41421356237309681
10
140.732
20
34.9176
10
140.73200000000003
20
22.418300000000009
42
0.41421356237309853
10
141.482
20
21.668300000000002
10
153.98200000000006
20
21.668300000000006
42
0.41421356237307422
10
154.732
20
22.418300000000002
10
154.732
20
34.9176
42
0.41421356237309681
0
LWPOLYLINE
5
113
100
AcDbEntity
8
0
100
AcDbPolyline
90
8
70
1
43
0.0
10
58.73149999999999
20
35.667600000000007
10
46.232199999999999
20
35.667600000000007
42
0.41421356237309331
10
45.482200000000006
20
34.917600000000007
10
45.482199999999999
20
22.418299999999995
42
0.41421356237310197
10
46.23220000000002
20
21.668299999999991
10
58.731499999999983
20
21.668299999999991
42
0.41421356237309853
10
59.48149999999999
20
22.418299999999995
10
59.48149999999999
20
34.9176
42
0.41421356237309503
0
LWPOLYLINE
5
114
100
AcDbEntity
8
0
100
AcDbPolyline
90
8
70
1
43
0.0
10
23.762900000000002
20
41.468300000000006
10
23.762900000000002
20
53.96759999999999
42
0.41421356237309331
10
23.012900000000002
20
54.717599999999997
10
5.7509000000000015
20
54.71759999999999
42
0.41421356237309503
10
5.0009000000000015
20
53.96759999999999
10
5.0009000000000015
20
41.468300000000006
42
0.41421356237309503
10
5.7509000000000015
20
40.718299999999999
10
23.012899999999998
20
40.718299999999999
42
0.41421356237309503
0
LWPOLYLINE
5
115
100
AcDbEntity
8
0
100
AcDbPolyline
90
8
70
1
43
0.0
10
243.126
20
34.9176
10
243.126
20
22.418300000000002
42
0.41421356237310025
10
243.87599999999998
20
21.668299999999995
10
256.375
20
21.668300000000002
42
0.41421356237310025
10
257.125
20
22.418300000000002
10
257.125
20
34.9176
42
0.41421356237310025
10
256.375
20
35.667600000000007
10
243.87599999999998
20
35.667600000000007
42
0.41421356237310025
0
LWPOLYLINE
5
116
100
AcDbEntity
8
0
100
AcDbPolyline
90
8
70
1
43
0.0
10
282.56900000000007
20
35.667600000000007
10
270.06999999999999
20
35.667600000000007
42
0.41421356237309331
10
269.32000000000005
20
34.9176
10
269.32000000000005
20
22.418300000000002
42
0.41421356237309331
10
270.06999999999999
20
21.668300000000002
10
282.56900000000007
20
21.668300000000002
42
0.41421356237309331
10
283.31900000000007
20
22.418300000000002
10
283.31900000000007
20
34.9176
42
0.41421356237309331
0
LWPOLYLINE
5
117
100
AcDbEntity
8
0
100
AcDbPolyline
90
8
70
1
43
0.0
10
216.93200000000004
20
34.9176
10
216.93200000000004
20
22.418300000000002
42
0.41421356237309331
10
217.68200000000004
20
21.668300000000013
10
230.18200000000004
20
21.668300000000002
42
0.41421356237309331
10
230.93200000000002
20
22.418300000000002
10
230.93200000000002
20
34.9176
42
0.41421356237309331
10
230.18200000000004
20
35.667600000000007
10
217.68200000000004
20
35.667599999999993
42
0.41421356237309331
0
LWPOLYLINE
5
118
100
AcDbEntity
8
0
100
AcDbPolyline
90
8
70
1
43
0.0
10
36.7072
20
40.718299999999999
10
49.206500000000013
20
40.718299999999999
42
0.41421356237309853
10
49.95650000000002
20
41.468300000000013
10
49.956500000000013
20
53.967600000000004
42
0.41421356237309159
10
49.206500000000013
20
54.717599999999997
10
36.7072
20
54.717599999999997
42
0.41421356237309503
10
35.9572
20
53.967599999999997
10
35.9572
20
41.468300000000006
42
0.41421356237309331
0
LWPOLYLINE
5
119
100
AcDbEntity
8
0
100
AcDbPolyline
90
8
70
1
43
0.0
10
69.006500000000003
20
41.468300000000006
10
69.006500000000003
20
53.967599999999997
42
0.41421356237309503
10
68.256500000000003
20
54.717599999999997
10
55.757200000000005
20
54.717599999999997
42
0.41421356237308815
10
55.007200000000005
20
53.967599999999997
10
55.007200000000005
20
41.468300000000006
42
0.41421356237308815
10
55.757200000000005
20
40.718299999999999
10
68.256500000000003
20
40.718299999999999
42
0.41421356237309503
0
LWPOLYLINE
5
120
100
AcDbEntity
8
0
100
AcDbPolyline
90
8
70
1
43
0.0
10
226.45700000000002
20
53.967599999999997
10
226.45700000000002
20
41.468300000000006
42
0.41421356237309853
10
227.20699999999999
20
40.718299999999999
10
239.70699999999999
20
40.718299999999999
42
0.41421356237309853
10
240.45699999999999
20
41.468300000000006
10
240.45699999999999
20
53.967599999999997
42
0.41421356237309853
10
239.70699999999999
20
54.717599999999997
10
227.20699999999999
20
54.717599999999997
42
0.41421356237309853
0
LWPOLYLINE
5
121
100
AcDbEntity
8
0
100
AcDbPolyline
90
8
70
1
43
0.0
10
31.944700000000008
20
59.768300000000004
10
44.444000000000003
20
59.768300000000004
42
0.41421356237309159
10
45.194000000000003
20
60.518299999999996
10
45.194000000000003
20
73.017600000000002
42
0.41421356237309503
10
44.444000000000003
20
73.767600000000002
10
31.944700000000008
20
73.767600000000016
42
0.41421356237309503
10
31.194700000000005
20
73.017600000000002
10
31.194700000000005
20
60.518300000000011
42
0.41421356237309503
0
LWPOLYLINE
5
122
100
AcDbEntity
8
0
100
AcDbPolyline
90
8
70
1
43
0.0
10
63.494
20
73.767600000000016
10
50.994700000000009
20
73.767600000000016
42
0.41421356237309503
10
50.244700000000009
20
73.017600000000002
10
50.244700000000009
20
60.518300000000011
42
0.41421356237308815
10
50.994700000000009
20
59.768300000000004
10
63.494
20
59.768300000000004
42
0.41421356237308815
10
64.244
20
60.518300000000011
10
64.244
20
73.017600000000002
42
0.41421356237309503
0
LWPOLYLINE
5
123
100
AcDbEntity
8
0
100
AcDbPolyline
90
8
70
1
43
0.0
10
150.25700000000001
20
53.967599999999997
10
150.25700000000001
20
41.468300000000006
42
0.41421356237308815
10
151.00700000000001
20
40.718299999999992
10
163.50700000000003
20
40.718299999999999
42
0.41421356237309853
10
164.25700000000003
20
41.468300000000006
10
164.25700000000003
20
53.967599999999997
42
0.41421356237309853
10
163.50700000000003
20
54.717599999999997
10
151.00700000000001
20
54.717600000000004
42
0.41421356237308815
0
LWPOLYLINE
5
124
100
AcDbEntity
8
0
100
AcDbPolyline
90
8
70
1
43
0.0
10
208.15700000000004
20
40.718299999999999
10
220.65700000000004
20
40.718299999999999
42
0.41421356237307771
10
221.40700000000004
20
41.468300000000006
10
221.40700000000004
20
53.967599999999997
42
0.41421356237307771
10
220.65700000000004
20
54.717600000000019
10
208.15700000000004
20
54.717600000000019
42
0.41421356237307771
10
207.40700000000004
20
53.967599999999997
10
207.40700000000004
20
41.468300000000006
42
0.41421356237307771
0
LWPOLYLINE
5
125
100
AcDbEntity
8
0
100
AcDbPolyline
90
8
70
1
43
0.0
10
145.20699999999999
20
41.468300000000006
10
145.20699999999999
20
53.967599999999997
42
0.41421356237308815
10
144.45700000000002
20
54.717600000000004
10
131.95699999999999
20
54.717599999999997
42
0.41421356237309159
10
131.20700000000002
20
53.967600000000004
10
131.20699999999999
20
41.468300000000006
42
0.41421356237310197
10
131.95699999999999
20
40.718299999999999
10
144.45699999999999
20
40.718299999999992
42
0.41421356237309503
0
LWPOLYLINE
5
126
100
AcDbEntity
8
0
100
AcDbPolyline
90
8
70
1
43
0.0
10
170.05700000000002
20
40.718299999999999
10
182.55700000000004
20
40.718299999999999
42
0.41421356237309853
10
183.30700000000004
20
41.468300000000006
10
183.30700000000004
20
53.967599999999997
42
0.41421356237309853
10
182.55700000000004
20
54.717599999999997
10
170.05700000000002
20
54.717600000000019
42
0.41421356237307771
10
169.30700000000002
20
53.967599999999997
10
169.30700000000002
20
41.468300000000006
42
0.41421356237307771
0
LWPOLYLINE
5
127
100
AcDbEntity
8
0
100
AcDbPolyline
90
8
70
1
43
0.0
10
82.544000000000011
20
73.767600000000016
10
70.044700000000006
20
73.767600000000016
42
0.41421356237308815
10
69.294700000000006
20
73.017600000000002
10
69.294700000000006
20
60.518300000000011
42
0.41421356237308116
10
70.044700000000006
20
59.768300000000004
10
82.544000000000011
20
59.768300000000004
42
0.4142135623730846
10
83.293999999999997
20
60.518300000000011
10
83.293999999999997
20
73.017600000000002
42
0.41421356237308815
0
LWPOLYLINE
5
128
100
AcDbEntity
8
0
100
AcDbPolyline
90
8
70
1
43
0.0
10
7.3821600000000007
20
73.017600000000002
10
7.3821600000000007
20
60.518300000000011
42
0.41421356237308854
10
8.1321599999999989
20
59.768300000000011
10
20.631699999999999
20
59.768300000000004
42
0.41421356237308815
10
21.381700000000002
20
60.518300000000011
10
21.381700000000002
20
73.017600000000002
42
0.41421356237309331
10
20.631699999999999
20
73.767600000000016
10
8.1321600000000007
20
73.767600000000016
42
0.41421356237309331
0
LWPOLYLINE
5
129
100
AcDbEntity
8
0
100
AcDbPolyline
90
8
70
1
43
0.0
10
127.19499999999999
20
59.768300000000004
10
139.69400000000002
20
59.768300000000004
42
0.41421356237309503
10
140.44400000000002
20
60.518300000000011
10
140.44399999999999
20
73.017600000000002
42
0.41421356237308116
10
139.69400000000005
20
73.767600000000016
10
127.19499999999999
20
73.767600000000016
42
0.41421356237309503
10
126.44500000000001
20
73.017600000000002
10
126.44500000000005
20
60.518300000000025
42
0.41421356237310197
0
LWPOLYLINE
5
130
100
AcDbEntity
8
0
100
AcDbPolyline
90
8
70
1
43
0.0
10
74.057199999999995
20
53.967599999999997
10
74.057199999999995
20
41.468300000000006
42
0.41421356237308815
10
74.807199999999995
20
40.718299999999999
10
87.3065
20
40.718299999999992
42
0.41421356237308815
10
88.0565
20
41.468300000000006
10
88.0565
20
53.967599999999997
42
0.41421356237308815
10
87.3065
20
54.717599999999997
10
74.807199999999995
20
54.717599999999997
42
0.41421356237308815
0
LWPOLYLINE
5
131
100
AcDbEntity
8
0
100
AcDbPolyline
90
8
70
1
43
0.0
10
202.35700000000003
20
41.468300000000006
10
202.35700000000003
20
53.967599999999997
42
0.41421356237307771
10
201.60700000000003
20
54.717600000000019
10
189.10699999999997
20
54.717599999999997
42
0.41421356237309853
10
188.357
20
53.967599999999997
10
188.357
20
41.468300000000006
42
0.41421356237309853
10
189.10699999999997
20
40.718299999999999
10
201.60700000000003
20
40.718299999999985
42
0.41421356237307771
0
LWPOLYLINE
5
132
100
AcDbEntity
8
0
100
AcDbPolyline
90
8
70
1
43
0.0
10
125.40700000000002
20
54.717599999999997
10
112.90700000000001
20
54.717599999999997
42
0.41421356237308815
10
112.15700000000001
20
53.967599999999997
10
112.15700000000001
20
41.468300000000006
42
0.41421356237308815
10
112.90700000000001
20
40.718299999999992
10
125.40700000000002
20
40.718299999999992
42
0.41421356237308815
10
126.15700000000002
20
41.468300000000006
10
126.15700000000001
20
53.967599999999997
42
0.41421356237308815
0
LWPOLYLINE
5
133
100
AcDbEntity
8
0
100
AcDbPolyline
90
8
70
1
43
0.0
10
88.344700000000017
20
73.017600000000002
10
88.344700000000017
20
60.518300000000011
42
0.41421356237307771
10
89.094699999999989
20
59.768300000000004
10
101.59400000000002
20
59.768300000000004
42
0.4142135623730846
10
102.34400000000001
20
60.518300000000011
10
102.34400000000001
20
73.017600000000002
42
0.41421356237308815
10
101.59400000000002
20
73.767600000000016
10
89.094700000000003
20
73.767600000000016
42
0.41421356237308815
0
LWPOLYLINE
5
134
100
AcDbEntity
8
0
100
AcDbPolyline
90
8
70
1
43
0.0
10
93.857200000000006
20
40.718299999999999
10
106.35700000000003
20
40.718299999999999
42
0.41421356237308815
10
107.10700000000003
20
41.468300000000006
10
107.10700000000003
20
53.967599999999997
42
0.41421356237308815
10
106.35700000000003
20
54.717600000000004
10
93.857200000000034
20
54.717599999999997
42
0.41421356237309159
10
93.10720000000002
20
53.967599999999997
10
93.107200000000034
20
41.468300000000006
42
0.41421356237308815
0
LWPOLYLINE
5
135
100
AcDbEntity
8
0
100
AcDbPolyline
90
8
70
1
43
0.0
10
92.069000000000017
20
92.817599999999999
10
79.569699999999997
20
92.817599999999999
42
0.41421356237307771
10
78.819699999999997
20
92.067600000000027
10
78.819699999999997
20
79.568299999999994
42
0.41421356237308116
10
79.569699999999997
20
78.818299999999994
10
92.069000000000017
20
78.818299999999994
42
0.4142135623730846
10
92.819000000000003
20
79.568299999999994
10
92.818999999999988
20
92.067600000000013
42
0.41421356237312978
0
LWPOLYLINE
5
136
100
AcDbEntity
8
0
100
AcDbPolyline
90
8
70
1
43
0.0
10
196.84400000000005
20
73.767600000000016
10
184.345
20
73.767600000000016
42
0.41421356237309853
10
183.595
20
73.017600000000002
10
183.595
20
60.518300000000011
42
0.41421356237309503
10
184.345
20
59.768300000000004
10
196.84400000000005
20
59.768300000000004
42
0.41421356237309503
10
197.59400000000002
20
60.518300000000011
10
197.59400000000002
20
73.017600000000002
42
0.41421356237309853
0
LWPOLYLINE
5
137
100
AcDbEntity
8
0
100
AcDbPolyline
90
8
70
1
43
0.0
10
164.54499999999999
20
73.017600000000002
10
164.54499999999999
20
60.518300000000011
42
0.41421356237309503
10
165.29499999999999
20
59.768300000000011
10
177.79400000000004
20
59.768300000000011
42
0.41421356237309503
10
178.54400000000001
20
60.518300000000011
10
178.54400000000001
20
73.017600000000002
42
0.41421356237309853
10
177.79400000000004
20
73.767600000000016
10
165.29499999999999
20
73.767600000000016
42
0.41421356237309853
0
LWPOLYLINE
5
138
100
AcDbEntity
8
0
100
AcDbPolyline
90
8
70
1
43
0.0
10
34.918999999999997
20
92.817599999999999
10
22.419700000000002
20
92.817599999999999
42
0.41421356237309503
10
21.669700000000006
20
92.067600000000013
10
21.66970000000001
20
79.568300000000022
42
0.41421356237310542
10
22.419700000000002
20
78.818299999999994
10
34.918999999999997
20
78.818299999999994
42
0.41421356237309503
10
35.668999999999997
20
79.568299999999994
10
35.668999999999997
20
92.067600000000013
42
0.41421356237309503
0
LWPOLYLINE
5
139
100
AcDbEntity
8
0
100
AcDbPolyline
90
8
70
1
43
0.0
10
117.67000000000003
20
78.818299999999994
10
130.16900000000001
20
78.818299999999994
42
0.41421356237308815
10
130.91900000000001
20
79.568299999999979
10
130.91900000000001
20
92.067600000000013
42
0.41421356237310197
10
130.16899999999998
20
92.817599999999999
10
117.67000000000003
20
92.817599999999999
42
0.41421356237309503
10
116.92000000000004
20
92.067600000000013
10
116.92000000000004
20
79.568300000000022
42
0.41421356237310197
0
LWPOLYLINE
5
140
100
AcDbEntity
8
0
100
AcDbPolyline
90
8
70
1
43
0.0
10
215.89400000000001
20
73.767600000000016
10
203.39500000000001
20
73.767600000000016
42
0.41421356237309853
10
202.64500000000001
20
73.017600000000002
10
202.64500000000001
20
60.518300000000011
42
0.41421356237309503
10
203.39500000000001
20
59.768300000000004
10
215.89400000000001
20
59.768300000000004
42
0.41421356237307422
10
216.64400000000001
20
60.518300000000011
10
216.64400000000001
20
73.017600000000002
42
0.41421356237307771
0
LWPOLYLINE
5
141
100
AcDbEntity
8
0
100
AcDbPolyline
90
8
70
1
43
0.0
10
98.618300000000005
20
78.818299999999994
10
111.11900000000003
20
78.818299999999994
42
0.4142135623730846
10
111.86900000000001
20
79.568299999999994
10
111.86900000000001
20
92.067600000000013
42
0.41421356237312978
10
111.11900000000003
20
92.817600000000027
10
98.618300000000005
20
92.817599999999999
42
0.41421356237312978
10
97.868300000000033
20
92.067600000000013
10
97.868300000000019
20
79.568299999999994
42
0.4142135623730846
0
LWPOLYLINE
5
142
100
AcDbEntity
8
0
100
AcDbPolyline
90
8
70
1
43
0.0
10
120.64400000000001
20
73.767600000000016
10
108.14499999999998
20
73.767600000000016
42
0.41421356237308815
10
107.395
20
73.017600000000002
10
107.395
20
60.518300000000011
42
0.4142135623730846
10
108.14499999999998
20
59.768300000000004
10
120.64400000000001
20
59.768300000000004
42
0.4142135623730846
10
121.39400000000001
20
60.518300000000011
10
121.39399999999998
20
73.017600000000002
42
0.41421356237308815
0
LWPOLYLINE
5
143
100
AcDbEntity
8
0
100
AcDbPolyline
90
8
70
1
43
0.0
10
60.519700000000007
20
78.818299999999994
10
73.018999999999991
20
78.818299999999994
42
0.41421356237308815
10
73.768999999999991
20
79.568299999999994
10
73.769000000000005
20
92.067600000000013
42
0.41421356237308815
10
73.018999999999991
20
92.817599999999999
10
60.519700000000007
20
92.817599999999999
42
0.41421356237307771
10
59.769700000000007
20
92.067600000000027
10
59.769700000000007
20
79.568299999999994
42
0.41421356237308116
0
LWPOLYLINE
5
144
100
AcDbEntity
8
0
100
AcDbPolyline
90
8
70
1
43
0.0
10
221.69499999999999
20
73.017600000000002
10
221.69499999999999
20
60.518300000000011
42
0.41421356237306034
10
222.44499999999994
20
59.768299999999996
10
234.94400000000007
20
59.768299999999996
42
0.41421356237306034
10
235.69400000000002
20
60.518300000000011
10
235.69400000000002
20
73.017600000000002
42
0.41421356237307771
10
234.94400000000002
20
73.76760000000003
10
222.44499999999999
20
73.76760000000003
42
0.41421356237307771
0
LWPOLYLINE
5
145
100
AcDbEntity
8
0
100
AcDbPolyline
90
8
70
1
43
0.0
10
265.30700000000002
20
59.768300000000004
10
277.80700000000002
20
59.768300000000004
42
0.41421356237309503
10
278.55700000000002
20
60.518300000000011
10
278.55700000000002
20
73.017600000000002
42
0.41421356237309853
10
277.80700000000002
20
73.767600000000016
10
265.30700000000002
20
73.767600000000016
42
0.41421356237309853
10
264.55700000000002
20
73.017600000000002
10
264.55700000000002
20
60.518300000000011
42
0.41421356237309503
0
LWPOLYLINE
5
146
100
AcDbEntity
8
0
100
AcDbPolyline
90
8
70
1
43
0.0
10
15.869200000000001
20
92.817599999999999
10
3.3696500000000111
20
92.817599999999999
42
0.41421356237309503
10
2.6196500000000111
20
92.067600000000013
10
2.6196500000000111
20
79.568299999999994
42
0.41421356237309503
10
3.3696500000000107
20
78.818299999999994
10
15.869200000000001
20
78.818299999999994
42
0.41421356237309853
10
16.619200000000006
20
79.568300000000008
10
16.619199999999996
20
92.067600000000013
42
0.41421356237309592
0
LWPOLYLINE
5
147
100
AcDbEntity
8
0
100
AcDbPolyline
90
8
70
1
43
0.0
10
136.72
20
78.818299999999994
10
149.21899999999999
20
78.818299999999994
42
0.4142135623730846
10
149.96899999999999
20
79.568299999999994
10
149.96899999999999
20
92.067600000000013
42
0.41421356237312978
10
149.21899999999999
20
92.817599999999999
10
136.72
20
92.817600000000027
42
0.41421356237312978
10
135.97000000000003
20
92.067600000000013
10
135.97000000000003
20
79.568299999999994
42
0.4142135623730846
0
LWPOLYLINE
5
148
100
AcDbEntity
8
0
100
AcDbPolyline
90
8
70
1
43
0.0
10
41.469700000000003
20
78.818299999999994
10
53.968999999999994
20
78.818299999999994
42
0.41421356237308815
10
54.718999999999994
20
79.568299999999994
10
54.719000000000008
20
92.067600000000013
42
0.41421356237308815
10
53.968999999999994
20
92.817599999999999
10
41.469700000000003
20
92.817599999999999
42
0.41421356237308815
10
40.719699999999996
20
92.067600000000013
10
40.719700000000003
20
79.568299999999994
42
0.41421356237308815
0
LWPOLYLINE
5
149
100
AcDbEntity
8
0
100
AcDbPolyline
90
8
70
1
43
0.0
10
254.74400000000003
20
60.518300000000011
10
254.74400000000003
20
73.017600000000002
42
0.41421356237307771
10
253.99400000000003
20
73.76760000000003
10
241.495
20
73.767600000000016
42
0.41421356237307771
10
240.745
20
73.017600000000002
10
240.745
20
60.518300000000011
42
0.41421356237306034
10
241.49499999999995
20
59.768299999999996
10
253.99400000000009
20
59.768299999999996
42
0.41421356237306034
0
LWPOLYLINE
5
150
100
AcDbEntity
8
0
100
AcDbPolyline
90
8
70
1
43
0.0
10
159.494
20
60.518300000000011
10
159.494
20
73.017600000000002
42
0.41421356237308815
10
158.74400000000003
20
73.767600000000016
10
146.245
20
73.767600000000016
42
0.41421356237308815
10
145.495
20
73.017600000000002
10
145.495
20
60.518300000000011
42
0.4142135623730846
10
146.245
20
59.768300000000004
10
158.74400000000003
20
59.768300000000004
42
0.4142135623730846
0
LWPOLYLINE
5
151
100
AcDbEntity
8
0
100
AcDbPolyline
90
8
70
1
43
0.0
10
155.77000000000001
20
78.818299999999994
10
168.26900000000001
20
78.818299999999994
42
0.41421356237309503
10
169.01900000000001
20
79.568299999999994
10
169.01900000000001
20
92.067600000000013
42
0.41421356237312279
10
168.26900000000001
20
92.817599999999999
10
155.77000000000001
20
92.817600000000027
42
0.41421356237312978
10
155.02000000000004
20
92.067600000000013
10
155.02000000000004
20
79.568299999999994
42
0.4142135623730846
0
LWPOLYLINE
5
152
100
AcDbEntity
8
0
100
AcDbPolyline
90
8
70
1
43
0.0
10
245.21900000000002
20
79.568299999999994
10
245.21900000000002
20
92.067600000000013
42
0.41421356237310197
10
244.46900000000005
20
92.817599999999985
10
231.97
20
92.817599999999999
42
0.41421356237311585
10
231.22
20
92.067600000000013
10
231.22
20
79.568299999999994
42
0.41421356237307422
10
231.97
20
78.818299999999994
10
244.46900000000005
20
78.818299999999994
42
0.41421356237306034
0
LWPOLYLINE
5
153
100
AcDbEntity
8
0
100
AcDbPolyline
90
8
70
1
43
0.0
10
206.36900000000003
20
92.817599999999999
10
193.87
20
92.817599999999999
42
0.41421356237312279
10
193.12
20
92.067600000000013
10
193.12
20
79.568299999999994
42
0.41421356237309503
10
193.87
20
78.818299999999994
10
206.36900000000003
20
78.818300000000008
42
0.41421356237309503
10
207.11900000000003
20
79.568299999999994
10
207.11900000000003
20
92.067600000000013
42
0.41421356237312279
0
LWPOLYLINE
5
154
100
AcDbEntity
8
0
100
AcDbPolyline
90
8
70
1
43
0.0
10
226.16900000000001
20
79.568299999999994
10
226.16900000000001
20
92.067599999999999
42
0.41421356237306034
10
225.41900000000004
20
92.817599999999999
10
212.91999999999996
20
92.817599999999985
42
0.41421356237310197
10
212.16999999999999
20
92.067600000000013
10
212.16999999999999
20
79.568299999999994
42
0.41421356237306034
10
212.91999999999996
20
78.818299999999994
10
225.41900000000004
20
78.818299999999994
42
0.41421356237306034
0
LWPOLYLINE
5
155
100
AcDbEntity
8
0
100
AcDbPolyline
90
8
70
1
43
0.0
10
188.06900000000002
20
79.568299999999994
10
188.06900000000002
20
92.067600000000013
42
0.41421356237312279
10
187.31900000000002
20
92.817599999999999
10
174.81999999999999
20
92.817599999999999
42
0.41421356237312279
10
174.06999999999999
20
92.067600000000013
10
174.06999999999999
20
79.568299999999994
42
0.41421356237309503
10
174.81999999999999
20
78.818300000000008
10
187.31900000000002
20
78.818300000000008
42
0.41421356237309503
0
LWPOLYLINE
5
156
100
AcDbEntity
8
0
100
AcDbPolyline
90
8
70
1
43
0.0
10
250.27000000000001
20
92.067600000000013
10
250.27000000000001
20
79.568299999999994
42
0.41421356237306034
10
251.01999999999998
20
78.818299999999994
10
263.51900000000006
20
78.818299999999994
42
0.41421356237307422
10
264.26900000000001
20
79.568299999999994
10
264.26900000000001
20
92.067599999999999
42
0.41421356237306034
10
263.51900000000006
20
92.817599999999999
10
251.01999999999998
20
92.817599999999985
42
0.41421356237310197
0
LWPOLYLINE
5
157
100
AcDbEntity
8
0
100
AcDbPolyline
90
8
70
1
43
0.0
10
283.31900000000007
20
79.568299999999994
10
283.31900000000007
20
92.067599999999999
42
0.41421356237306034
10
282.56900000000007
20
92.817599999999999
10
270.06999999999999
20
92.817599999999985
42
0.41421356237310197
10
269.32000000000005
20
92.067600000000013
10
269.32000000000005
20
79.568299999999994
42
0.41421356237307422
10
270.06999999999999
20
78.818299999999994
10
282.56900000000007
20
78.818299999999994
42
0.41421356237306034
0
CIRCLE
5
158
100
AcDbEntity
8
0
100
AcDbCircle
10
4.9436499999999999
20
98.817599999999999
30
0
40
1.5999999999999952
210
0
220
0
230
1
0
CIRCLE
5
159
100
AcDbEntity
8
0
100
AcDbCircle
10
96.943650000000019
20
98.817599999999999
30
0
40
1.5999999999999996
210
0
220
0
230
1
0
CIRCLE
5
160
100
AcDbEntity
8
0
100
AcDbCircle
10
280.99450000000002
20
98.817599999999999
30
0
40
1.6000000000000014
210
0
220
0
230
1
0
CIRCLE
5
161
100
AcDbEntity
8
0
100
AcDbCircle
10
188.99450000000002
20
98.817599999999999
30
0
40
1.600000000000007
210
0
220
0
230
1
0
CIRCLE
5
162
100
AcDbEntity
8
0
100
AcDbCircle
10
4.9436499999999999
20
-3.3817299999999992
30
0
40
1.6000000000000003
210
0
220
0
230
1
0
CIRCLE
5
163
100
AcDbEntity
8
0
100
AcDbCircle
10
96.943650000000019
20
-3.3817299999999992
30
0
40
1.6000000000000005
210
0
220
0
230
1
0
CIRCLE
5
164
100
AcDbEntity
8
0
100
AcDbCircle
10
188.99450000000002
20
-3.3817299999999992
30
0
40
1.6000000000000012
210
0
220
0
230
1
0
CIRCLE
5
165
100
AcDbEntity
8
0
100
AcDbCircle
10
280.99450000000002
20
-3.3817299999999975
30
0
40
1.5999999999999945
210
0
220
0
230
1
0
LWPOLYLINE
5
166
100
AcDbEntity
8
0
100
AcDbPolyline
90
24
70
1
43
0.0
10
37.017144020954625
20
20.436616004976642
10
37.017144014431778
20
35.917573155312837
42
0.41421356237309681
10
36.267144014115765
20
36.667573154996838
10
29.01538906233473
20
36.667573151941333
42
0.41421983892890091
10
28.525389062653709
20
36.177562651302232
10
28.525389490450234
20
36.157600028352668
42
-0.41421356237311363
10
28.03539999120186
20
35.667589527826088
10
15.015899989569789
20
35.66731052155901
42
-0.4142135623731043
10
14.5258894890432
20
36.157300020807391
10
14.525889060220665
20
36.177310521122926
42
0.41420728584516026
10
14.035889060126721
20
36.667300020483829
10
6.7758999924626382
20
36.66730001742485
42
0.41421356237309853
10
6.0258999927786503
20
35.917300017108843
10
6.0258999993090896
20
20.418299999683981
42
0.41421356224968486
10
6.7758999993090896
20
19.668299999999988
10
13.775899992013581
20
19.668299999999984
42
0.41421356267657261
10
14.525899992013578
20
20.418300000777094
10
14.52589999149551
20
20.918299998991877
42
-0.41421356265489157
10
15.275899991440003
20
21.668299999768983
10
27.775399992069943
20
21.668300000694106
42
-0.41421356239477519
10
28.525399992125461
20
20.918300000694106
10
28.525399992125458
20
20.420076302061013
42
0.41490660050987521
10
29.277174190693028
20
19.670078400584323
10
36.268918219522213
20
19.68661810318396
42
0.41352086381801317
0
LINE
5
167
100
AcDbEntity
8
0
100
AcDbLine
10
30.06320051972612
20
21.169080272665823
30
0
11
30.06320051972612
21
21.169080272665823
31
0
0
LINE
5
168
100
AcDbEntity
8
0
100
AcDbLine
10
14.5259
20
21.168300000000002
30
0
11
14.5259
21
21.168300000000002
31
0
0
LWPOLYLINE
5
169
100
AcDbEntity
8
0
100
AcDbPolyline
90
8
70
1
43
0.0
10
89.470000000000013
20
16.867799999999999
10
89.470000000000013
20
1.3682700000000003
42
-0.41421356237309503
10
88.720000000000013
20
0.61827000000000021
10
82.719999999999999
20
0.61827000000000798
42
-0.41421356237309503
10
81.970000000000013
20
1.3682700000000003
10
81.970000000000013
20
16.867799999999999
42
-0.41421356237309503
10
82.719999999999999
20
17.617799999999999
10
88.720000000000013
20
17.617799999999992
42
-0.41421356237309503
0
LWPOLYLINE
5
170
100
AcDbEntity
8
0
100
AcDbPolyline
90
8
70
1
43
0.0
10
203.96900000000002
20
16.867800000000003
10
203.96900000000002
20
1.3682699999999999
42
-0.41421356237309159
10
203.21900000000002
20
0.6182700000000001
10
197.21900000000002
20
0.61827000000001742
42
-0.41421356237309137
10
196.46900000000002
20
1.3682700000000003
10
196.46900000000002
20
16.867800000000003
42
-0.41421356237309076
10
197.21900000000002
20
17.617799999999999
10
203.21900000000002
20
17.617799999999988
42
-0.41421356237309243
0
LWPOLYLINE
5
171
100
AcDbEntity
8
0
100
AcDbPolyline
90
8
70
1
43
0.0
10
287.74450000000007
20
102.81759999999998
10
-1.8063500000000006
20
102.8176
42
0.41421356237309892
10
-5.0563500000000001
20
99.567600000000013
10
-5.0563500000000001
20
-4.1317300000000223
42
0.41421356237309304
10
-1.8063499999999877
20
-7.3817299999999975
10
287.74450000000007
20
-7.3817300000000063
42
0.41421356237309581
10
290.99450000000002
20
-4.1317300000000046
10
290.99450000000002
20
99.567600000000013
42
0.41421356237309664
0
LINE
5
172
100
AcDbEntity
8
0
100
AcDbLine
10
14.525899991236475
20
21.168300000000002
30
0
11
14.525899991236475
21
21.168300000000002
31
0
0
LINE
5
173
100
AcDbEntity
8
0
100
AcDbLine
10
30.050899999708953
20
21.168300000836272
30
0
11
30.050899999708953
21
21.168300000836272
31
0
0
LWPOLYLINE
5
174
100
AcDbEntity
8
0
100
AcDbPolyline
90
24
70
1
43
0.0
10
256.9222339455618
20
55.708847488689202
42
-0.41419122451717671
10
257.41223394413674
20
55.21888485942754
10
257.41223547027391
20
55.198874359165771
42
0.41421356237311097
10
257.90227283958711
20
54.708911731329188
10
270.92177280634394
20
54.709904687100831
42
0.41421356237312157
10
271.41173543418057
20
55.199942056414066
10
271.41173391169491
20
55.21990467931299
42
-0.41423590058187221
10
271.9017339102698
20
55.709942050051318
10
279.15405855816817
20
55.709942050048518
42
-0.41421356237308116
10
279.90405855816817
20
54.95994205004849
10
279.90405855816812
20
39.479381880102046
42
-0.41350481027906005
10
279.15587388432095
20
38.729384077044656
10
272.16442425848231
20
38.71246167900577
42
-0.41490660050987976
10
271.41260893345719
20
39.462418354360224
10
271.41258161239546
20
39.960642052244374
42
0.41421356239477697
10
270.66254048576468
20
40.710600923413757
10
258.16304050392836
20
40.709915488191115
42
0.41421356265488896
10
257.41308163281451
20
39.959874360838711
10
257.41310905180114
20
39.459874363375718
42
-0.41421356267657605
10
256.66315018063182
20
38.709833236023314
10
249.66291978797233
20
38.70944936482784
42
-0.41422962383137579
10
248.9128786602694
20
39.459449363700173
10
248.91287866026937
20
54.958847488688619
42
-0.41421356237310897
10
249.66287866026937
20
55.708847488688619
0
LINE
5
175
100
AcDbEntity
8
0
100
AcDbLine
10
272.93806738822059
20
40.219786709009497
30
0
11
272.93806738822059
21
40.219786709009497
31
0
0
LINE
5
176
100
AcDbEntity
8
0
100
AcDbLine
10
257.4130673797481
20
40.219786708173231
30
0
11
257.4130673797481
21
40.219786708173231
31
0
0
LINE
5
177
100
AcDbEntity
8
0
100
AcDbLine
10
257.41306738851165
20
40.219786708173231
30
0
11
257.41306738851165
21
40.219786708173231
31
0
0
LINE
5
178
100
AcDbEntity
8
0
100
AcDbLine
10
272.95036790823775
20
40.220566980839052
30
0
11
272.95036790823775
21
40.220566980839052
31
0
0
ENDSEC
0
SECTION
2
OBJECTS
0
DICTIONARY
5
C
100
AcDbDictionary
3
ACAD_GROUP
350
D
3
ACAD_MLINESTYLE
350
17
0
DICTIONARY
5
D
100
AcDbDictionary
0
DICTIONARY
5
1A
330
C
100
AcDbDictionary
0
DICTIONARY
5
17
100
AcDbDictionary
0
ENDSEC
0
EOF
